<?xml version="1.0" encoding="utf-8"?>
<!-- Generator: Adobe Illustrator 15.0.0, SVG Export Plug-In . SVG Version: 6.00 Build 0)  -->
<!DOCTYPE svg PUBLIC "-//W3C//DTD SVG 1.1//EN" "http://www.w3.org/Graphics/SVG/1.1/DTD/svg11.dtd">
<svg version="1.1" xmlns="http://www.w3.org/2000/svg" xmlns:xlink="http://www.w3.org/1999/xlink" x="0px" y="0px" width="315px"
	 height="311.126px" viewBox="0 0 315 311.126" enable-background="new 0 0 315 311.126" xml:space="preserve">
<g id="Monogram_1_">
	<linearGradient id="Background_2_" gradientUnits="userSpaceOnUse" x1="30.686" y1="325.9111" x2="282.3393" y2="-9.4619">
		<stop  offset="0" style="stop-color:#056776"/>
		<stop  offset="0.6901" style="stop-color:#713239"/>
		<stop  offset="1" style="stop-color:#9D1D21"/>
	</linearGradient>
	<path id="Background_1_" fill="url(#Background_2_)" d="M284.596,253.444c0.532,6.995-4.756,13.154-11.752,13.687L60.858,283.256
		c-6.996,0.532-13.155-4.756-13.687-11.751L31.046,59.517c-0.532-6.996,4.756-13.155,11.751-13.687l211.986-16.125
		c6.996-0.532,13.155,4.756,13.688,11.752L284.596,253.444z"/>
	<polygon opacity="0.15" points="72.369,282.381 247.593,269.052 247.593,30.252 72.369,43.581 	"/>
	<polygon opacity="0.15" points="72.369,282.381 99.542,280.313 99.542,41.514 72.369,43.581 	"/>
	<polygon opacity="0.15" points="170.336,274.929 197.51,272.861 197.51,34.062 170.336,36.129 	"/>
	<polygon opacity="0.1" points="34.308,102.404 273.106,102.404 271.102,76.047 32.303,76.047 	"/>
	<path id="M_2_" fill="#FFFFFF" d="M72.369,116.524h29.676l32.894,52.917l32.894-52.917h29.677v125.141h-27.174v-81.699
		l-35.218,53.453h-0.715l-34.86-52.916v81.162H72.369V116.524z"/>
	<polygon opacity="0.15" fill="#FFFFFF" points="44.901,241.665 283.7,241.665 274.181,116.524 35.382,116.524 	"/>
	<path opacity="0.03" d="M174.706,274.596l24.441-1.859L57.41,44.719l-14.613,1.112c-6.034,0.458-10.788,5.107-11.642,10.865
		L174.706,274.596z"/>
	<polygon opacity="0.03" points="64.356,282.99 90.595,280.994 256.232,29.595 220.163,32.339 	"/>
	<rect id="Bar_2_" x="72.369" y="76.047" fill="#FFFFFF" width="175.224" height="26.357"/>
</g>
<g id="Layer_3">
</g>
<g id="Notes_and_guides">
</g>
</svg>
