<?xml version="1.0" encoding="utf-8"?>
<!-- Generator: Adobe Illustrator 15.0.0, SVG Export Plug-In . SVG Version: 6.00 Build 0)  -->
<!DOCTYPE svg PUBLIC "-//W3C//DTD SVG 1.1//EN" "http://www.w3.org/Graphics/SVG/1.1/DTD/svg11.dtd">
<svg version="1.1" xmlns="http://www.w3.org/2000/svg" xmlns:xlink="http://www.w3.org/1999/xlink" x="0px" y="0px"
	 width="255.485px" height="255.486px" viewBox="0 0 255.485 255.486" enable-background="new 0 0 255.485 255.486"
	 xml:space="preserve">
<g id="Monogram_1_">
	<g id="Background_1_">
		<path fill="#231F20" d="M254.518,224.707c0.532,6.995-4.756,13.154-11.752,13.687L30.78,254.518
			c-6.996,0.532-13.155-4.756-13.687-11.751L0.968,30.779c-0.532-6.996,4.756-13.155,11.751-13.687L224.705,0.967
			c6.996-0.532,13.155,4.756,13.688,11.752L254.518,224.707z"/>
	</g>
	<path id="M_2_" fill="#FFFFFF" d="M42.291,87.786h29.676l32.894,52.917l32.894-52.917h29.677v125.141h-27.174v-81.699
		l-35.218,53.453h-0.715l-34.86-52.916v81.162H42.291V87.786z"/>
	<rect id="Bar_2_" x="42.291" y="47.309" fill="#FFFFFF" width="175.224" height="26.357"/>
</g>
<g id="Notes_and_guides">
</g>
</svg>
