<?xml version="1.0" encoding="utf-8"?>
<!-- Generator: Adobe Illustrator 23.0.3, SVG Export Plug-In . SVG Version: 6.00 Build 0)  -->
<svg version="1.1" id="Monogram_1_" xmlns="http://www.w3.org/2000/svg" xmlns:xlink="http://www.w3.org/1999/xlink" x="0px"
	 y="0px" viewBox="0 0 255.5 255.5" style="enable-background:new 0 0 255.5 255.5;" xml:space="preserve">
<style type="text/css">
	.st0{fill:#FFFFFF;}
</style>
<path id="Path_10" d="M254.5,224.7c0.5,7-4.7,13.1-11.8,13.7l-212,16.1c-7,0.5-13.1-4.7-13.7-11.8L0.9,30.7
	c-0.5-7,4.7-13.1,11.8-13.7l212-16.1c7-0.5,13.1,4.7,13.7,11.8L254.5,224.7z"/>
<path id="Bar_1_" class="st0" d="M40.2,53.5h173v23.6h-173V53.5z"/>
<path id="Path_12" class="st0" d="M158.1,197.5l-0.3-104.6H138l-38.6,65l-39.1-65h-20v104.6h22.7v-61.4l30.6,50.4h10.9l30.8-51.7
	l0.1,62.8H158.1z"/>
</svg>
